<svg id="Layer_1" data-name="Layer 1" xmlns="http://www.w3.org/2000/svg" width="64" height="64" viewBox="0 0 64 64"><defs><style>.cls-1{fill:#666;}</style></defs><title>shop_basket</title><path class="cls-1" d="M29.55,8.17a1,1,0,0,0-1.39.28l-12,18a1,1,0,0,0,.28,1.39A1.06,1.06,0,0,0,17,28a1,1,0,0,0,.83-0.45l12-18A1,1,0,0,0,29.55,8.17Z"/><path class="cls-1" d="M45,28a0.94,0.94,0,0,0,.55-0.17,1,1,0,0,0,.28-1.39l-12-18a1,1,0,1,0-1.67,1.11l12,18A1,1,0,0,0,45,28Z"/><path class="cls-1" d="M24,24H38a1,1,0,0,0,0-2H24A1,1,0,0,0,24,24Z"/><path class="cls-1" d="M4.07,31.46L8,52.14A4.12,4.12,0,0,0,12,56H50a4.11,4.11,0,0,0,4-3.81l4-20.73A4.49,4.49,0,0,0,60,28.13,0.57,0.57,0,0,0,60,28V23a1,1,0,0,0-1-1H47a1,1,0,0,0,0,2H58v3.93A2.18,2.18,0,0,1,56,30H6a2.13,2.13,0,0,1-2-2V24H15a1,1,0,1,0,0-2H3a1,1,0,0,0-1,1v5.09A4.32,4.32,0,0,0,4.07,31.46ZM52,51.87A2.2,2.2,0,0,1,50,54H12a2.15,2.15,0,0,1-2-2.09s0-.07,0-0.1L6.21,32H55.79Z"/></svg>