<?xml version="1.0" encoding="UTF-8"?>
<svg width="20px" height="24px" viewBox="0 0 20 24" version="1.1" xmlns="http://www.w3.org/2000/svg" xmlns:xlink="http://www.w3.org/1999/xlink">
    <!-- Generator: Sketch 48.2 (47327) - http://www.bohemiancoding.com/sketch -->
    <title>Icon</title>
    <desc>Created with Sketch.</desc>
    <defs></defs>
    <g id="iPhone-X" stroke="none" stroke-width="1" fill="none" fill-rule="evenodd" transform="translate(-13.000000, -239.000000)">
        <path d="M27.5684532,241.181818 L31.0261271,241.181818 C31.6286196,241.181818 32.1170362,241.670235 32.1170362,242.272727 L13.922704,242.272727 C13.922704,241.670235 14.4111206,241.181818 15.0136131,241.181818 L18.4712871,241.181818 L18.4712871,241 C18.4712871,239.895431 19.3667176,239 20.4712871,239 L25.5684532,239 C26.6730227,239 27.5684532,239.895431 27.5684532,241 L27.5684532,241.181818 Z M15,243.277047 L31,243.277047 L30.2018434,261.625455 C30.2018434,261.625455 29.9006793,263 28.7649699,263 L23.4981895,263 L22.5405931,263 L17.2738127,263 C16.1385822,263 15.8374181,261.625455 15.8374181,261.625455 L15,243.277047 Z M27.4547317,245.545455 L26.3175859,245.545455 L25.749013,261.29566 L26.8861588,261.29566 L27.4547317,245.545455 Z M20.1770057,261.29566 L19.6086223,245.545455 L18.4712871,245.545455 L19.0396705,261.29566 L20.1770057,261.29566 Z M22.4512972,245.545455 L22.4512972,261.29566 L23.588443,261.29566 L23.588443,245.545455 L22.4512972,245.545455 Z" id="Icon" fill="#9B9B9B"></path>
    </g>
</svg>