<svg id="Layer_1" data-name="Layer 1" xmlns="http://www.w3.org/2000/svg" width="64" height="64" viewBox="0 0 64 64"><defs><style>.cls-1{fill:#666;}</style></defs><title>file_upload</title><path id="file_upload" class="cls-1" d="M39.71,36.29l-8-8a1,1,0,0,0-.33-0.22,1,1,0,0,0-.76,0,1,1,0,0,0-.33.22l-8,8a1,1,0,1,0,1.41,1.41L30,31.41V59a1,1,0,0,0,2,0V31.41l6.29,6.29A1,1,0,1,0,39.71,36.29Zm10-19-11-11A1,1,0,0,0,38,6H16a4,4,0,0,0-4,4V50a4,4,0,0,0,4,4h9a1,1,0,0,0,0-2H16a2,2,0,0,1-2-2V10a2,2,0,0,1,2-2H36v8a4,4,0,0,0,4,4h8V50a2,2,0,0,1-2,2H37a1,1,0,0,0,0,2h9a4,4,0,0,0,4-4V18A1,1,0,0,0,49.71,17.29ZM38,16V8.41L47.59,18H40A2,2,0,0,1,38,16Z"/></svg>