<svg id="Layer_1" data-name="Layer 1" xmlns="http://www.w3.org/2000/svg" width="64" height="64" viewBox="0 0 64 64"><defs><style>.cls-1{fill:#666;}</style></defs><title>documents</title><path id="documents" class="cls-1" d="M41.71,25.29l-9-9A1,1,0,0,0,32,16H12a4,4,0,0,0-4,4V56a4,4,0,0,0,4,4H38a4,4,0,0,0,4-4V26A1,1,0,0,0,41.71,25.29ZM39.59,26H34a2,2,0,0,1-2-2V18.41ZM38,58H12a2,2,0,0,1-2-2V20a2,2,0,0,1,2-2H30v6a4,4,0,0,0,4,4h6V56A2,2,0,0,1,38,58ZM23,14a1,1,0,0,1-1-1V10a4,4,0,0,1,4-4,1,1,0,0,1,0,2,2,2,0,0,0-2,2v3A1,1,0,0,1,23,14Zm32.71,1.29-9-9A1,1,0,0,0,46,6H26a1,1,0,0,0,0,2H44v6a4,4,0,0,0,4,4h6V46a2,2,0,0,1-2,2H45a1,1,0,0,0,0,2h7a4,4,0,0,0,4-4V16A1,1,0,0,0,55.71,15.29ZM46,14V8.41L53.59,16H48A2,2,0,0,1,46,14Z"/></svg>